HIERARCHY
ROOT Hips
{
	OFFSET 0.000000 0.000000 0.000000
	CHANNELS 6 Xposition Yposition Zposition Zrotation Yrotation Xrotation
	JOINT LeftUpLeg
	{
		OFFSET 9.14595 0 0
		CHANNELS 3 Zrotation Yrotation Xrotation
		JOINT LeftLeg
		{
			OFFSET 0 -43.2472 0
			CHANNELS 3 Zrotation Yrotation Xrotation
			JOINT LeftFoot
			{
				OFFSET 0 -39.3015 0
				CHANNELS 3 Zrotation Yrotation Xrotation
				JOINT LeftToe
				{
					OFFSET 0 -6.36299 14.6734
					CHANNELS 3 Zrotation Yrotation Xrotation
					JOINT LToeEnd
					{
						OFFSET 0 0 4.22007
						CHANNELS 3 Zrotation Yrotation Xrotation
						End Site
						{
							OFFSET 0.0 0.0 0.0
						}
					}
				}
			}
		}
	}
	JOINT RightUpLeg
	{
		OFFSET -9.14595 0 0
		CHANNELS 3 Zrotation Yrotation Xrotation
		JOINT RightLeg
		{
			OFFSET 0 -43.2472 0
			CHANNELS 3 Zrotation Yrotation Xrotation
			JOINT RightFoot
			{
				OFFSET 0 -39.3015 0
				CHANNELS 3 Zrotation Yrotation Xrotation
				JOINT RightToe
				{
					OFFSET 0 -6.36299 14.6734
					CHANNELS 3 Zrotation Yrotation Xrotation
					JOINT RToeEnd
					{
						OFFSET 0 0 4.22007
						CHANNELS 3 Zrotation Yrotation Xrotation
						End Site
						{
							OFFSET 0.0 0.0 0.0
						}
					}
				}
			}
		}
	}
	JOINT Spine1
	{
		OFFSET 0 5.32198 0
		CHANNELS 3 Zrotation Yrotation Xrotation
		JOINT Spine2
		{
			OFFSET 0 9.88454 0
			CHANNELS 3 Zrotation Yrotation Xrotation
			JOINT Chest
			{
				OFFSET 0 10.4705 0
				CHANNELS 3 Zrotation Yrotation Xrotation
				JOINT Neck
				{
					OFFSET 0 20.2251 0
					CHANNELS 3 Zrotation Yrotation Xrotation
					JOINT Head
					{
						OFFSET 0 14.0184 1.95005
						CHANNELS 3 Zrotation Yrotation Xrotation
						JOINT HeadEnd
						{
							OFFSET 0 13.1925 0
							CHANNELS 3 Zrotation Yrotation Xrotation
							End Site
							{
								OFFSET 0.0 0.0 0.0
							}
						}
					}
				}
				JOINT LeftShoulder
				{
					OFFSET 4.32209 17.5503 0
					CHANNELS 3 Zrotation Yrotation Xrotation
					JOINT LeftArm
					{
						OFFSET 14.8714 0 0
						CHANNELS 3 Zrotation Yrotation Xrotation
						JOINT LeftForeArm
						{
							OFFSET 23.7007 0 0
							CHANNELS 3 Zrotation Yrotation Xrotation
							JOINT LeftHand
							{
								OFFSET 19.1112 0 0
								CHANNELS 3 Zrotation Yrotation Xrotation
								JOINT LeftHandPalm
								{
									OFFSET 0 0 0
									CHANNELS 3 Zrotation Yrotation Xrotation
									JOINT FZLeftThumb1
									{
										OFFSET -0.59711 -1.83115 3.06628
										CHANNELS 3 Zrotation Yrotation Xrotation
										JOINT FZLeftThumb2
										{
											OFFSET 1.29678 -1.36788 1.83268
											CHANNELS 3 Zrotation Yrotation Xrotation
											JOINT FZLeftThumb3
											{
												OFFSET 1.93031 -2.00253 2.64919
												CHANNELS 3 Zrotation Yrotation Xrotation
												End Site
												{
													OFFSET 0.0 0.0 0.0
												}
											}
										}
									}
									JOINT FZLeftIndex1
									{
										OFFSET 6.11343 -1.1628 2.75002
										CHANNELS 3 Zrotation Yrotation Xrotation
										JOINT FZLeftIndex2
										{
											OFFSET 3.88139 -0.928421 1.01818
											CHANNELS 3 Zrotation Yrotation Xrotation
											JOINT FZLeftIndex3
											{
												OFFSET 1.49382 -0.458603 0.322774
												CHANNELS 3 Zrotation Yrotation Xrotation
												End Site
												{
													OFFSET 0.0 0.0 0.0
												}
											}
										}
									}
									JOINT FZLeftMiddle1
									{
										OFFSET 6.12023 -1.14722 0.290579
										CHANNELS 3 Zrotation Yrotation Xrotation
										JOINT FZLeftMiddle2
										{
											OFFSET 4.24735 -1.08437 0.104351
											CHANNELS 3 Zrotation Yrotation Xrotation
											JOINT FZLeftMiddle3
											{
												OFFSET 2.04489 -0.741196 0.00429702
												CHANNELS 3 Zrotation Yrotation Xrotation
												End Site
												{
													OFFSET 0.0 0.0 0.0
												}
											}
										}
									}
									JOINT FZLeftRing1
									{
										OFFSET 5.77174 -1.28551 -1.90363
										CHANNELS 3 Zrotation Yrotation Xrotation
										JOINT FZLeftRing2
										{
											OFFSET 3.29582 -0.998688 -0.9005
											CHANNELS 3 Zrotation Yrotation Xrotation
											JOINT FZLeftRing3
											{
												OFFSET 2.49246 -0.971542 -0.650992
												CHANNELS 3 Zrotation Yrotation Xrotation
												End Site
												{
													OFFSET 0.0 0.0 0.0
												}
											}
										}
									}
									JOINT FZLeftPinky1
									{
										OFFSET 4.89582 -1.51128 -3.95336
										CHANNELS 3 Zrotation Yrotation Xrotation
										JOINT FZLeftPinky2
										{
											OFFSET 2.15219 -0.837952 -1.2451
											CHANNELS 3 Zrotation Yrotation Xrotation
											JOINT FZLeftPinky3
											{
												OFFSET 1.41002 -0.66391 -0.765082
												CHANNELS 3 Zrotation Yrotation Xrotation
												End Site
												{
													OFFSET 0.0 0.0 0.0
												}
											}
										}
									}
								}
							}
						}
					}
				}
				JOINT RightShoulder
				{
					OFFSET -4.32209 17.5509 0
					CHANNELS 3 Zrotation Yrotation Xrotation
					JOINT RightArm
					{
						OFFSET -14.8714 0 0
						CHANNELS 3 Zrotation Yrotation Xrotation
						JOINT RightForeArm
						{
							OFFSET -23.7008 0 0
							CHANNELS 3 Zrotation Yrotation Xrotation
							JOINT RightHand
							{
								OFFSET -19.1112 0.00035344 0
								CHANNELS 3 Zrotation Yrotation Xrotation
								JOINT RightHandPalm
								{
									OFFSET 0 0 0
									CHANNELS 3 Zrotation Yrotation Xrotation
									JOINT FZRightThumb1
									{
										OFFSET 0.597107 -1.83099 3.06628
										CHANNELS 3 Zrotation Yrotation Xrotation
										JOINT FZRightThumb2
										{
											OFFSET -1.29681 -1.36801 1.83268
											CHANNELS 3 Zrotation Yrotation Xrotation
											JOINT FZRightThumb3
											{
												OFFSET -1.9303 -2.002 2.64919
												CHANNELS 3 Zrotation Yrotation Xrotation
												End Site
												{
													OFFSET 0.0 0.0 0.0
												}
											}
										}
									}
									JOINT FZRightIndex1
									{
										OFFSET -6.1134 -1.162 2.75002
										CHANNELS 3 Zrotation Yrotation Xrotation
										JOINT FZRightIndex2
										{
											OFFSET -3.8814 -0.929001 1.01818
											CHANNELS 3 Zrotation Yrotation Xrotation
											JOINT FZRightIndex3
											{
												OFFSET -1.4938 -0.457993 0.322774
												CHANNELS 3 Zrotation Yrotation Xrotation
												End Site
												{
													OFFSET 0.0 0.0 0.0
												}
											}
										}
									}
									JOINT FZRightMiddle1
									{
										OFFSET -6.12019 -1.147 0.29058
										CHANNELS 3 Zrotation Yrotation Xrotation
										JOINT FZRightMiddle2
										{
											OFFSET -4.24741 -1.084 0.10435
											CHANNELS 3 Zrotation Yrotation Xrotation
											JOINT FZRightMiddle3
											{
												OFFSET -2.0449 -0.740997 0.00430012
												CHANNELS 3 Zrotation Yrotation Xrotation
												End Site
												{
													OFFSET 0.0 0.0 0.0
												}
											}
										}
									}
									JOINT FZRightRing1
									{
										OFFSET -5.7717 -1.285 -1.90363
										CHANNELS 3 Zrotation Yrotation Xrotation
										JOINT FZRightRing2
										{
											OFFSET -3.2959 -0.998993 -0.9005
											CHANNELS 3 Zrotation Yrotation Xrotation
											JOINT FZRightRing3
											{
												OFFSET -2.4924 -0.971008 -0.65099
												CHANNELS 3 Zrotation Yrotation Xrotation
												End Site
												{
													OFFSET 0.0 0.0 0.0
												}
											}
										}
									}
									JOINT FZRightPinky1
									{
										OFFSET -4.8958 -1.511 -3.95337
										CHANNELS 3 Zrotation Yrotation Xrotation
										JOINT FZRightPinky2
										{
											OFFSET -2.1522 -0.837997 -1.24509
											CHANNELS 3 Zrotation Yrotation Xrotation
											JOINT FZRightPinky3
											{
												OFFSET -1.41 -0.664002 -0.76508
												CHANNELS 3 Zrotation Yrotation Xrotation
												End Site
												{
													OFFSET 0.0 0.0 0.0
												}
											}
										}
									}
								}
							}
						}
					}
				}
			}
		}
	}
}
MOTION
Frames: 4
Frame Time: 0.00833333
-540.313293 927.669678 366.266113 -3.484745 71.993353 -5.423138 7.205557 -66.757517 -0.182210 -6.035520 19.859038 -4.475136 3.154502 -26.290424 -8.111342 -2.531847 1.114597 5.304739 0.000002 -0.000014 1.021084 -14.137815 -68.733695 15.975249 3.619982 -7.419262 3.242243 10.223070 16.898716 -8.872072 -12.443301 -9.943157 4.940658 0.000002 -0.000007 2.759936 -9.629345 -73.874994 5.655696 -1.611472 -2.958191 2.773058 3.256594 2.305955 13.944696 4.896185 -10.842505 -11.963913 3.056826 -17.975331 -13.099318 0.847996 32.949186 12.841728 -7.961418 6.296572 -11.753560 -67.250926 -9.981239 43.441697 69.935298 12.660550 -17.743939 -4.703480 18.627208 7.645055 8.846235 8.695536 2.969586 0.000000 0.000000 0.000000 0.000000 0.000000 0.000000 0.000000 0.000000 0.000000 0.000000 0.000000 0.000000 0.000000 0.000000 0.000000 0.000000 0.000000 0.000000 0.000000 0.000000 0.000000 0.000000 0.000000 0.000000 0.000000 0.000000 0.000000 0.000000 0.000000 0.000000 0.000000 0.000000 0.000000 0.000000 0.000000 0.000000 0.000000 0.000000 0.000000 0.000000 0.000000 0.000000 0.000000 0.000000 0.000000 10.847103 6.938814 -7.082346 57.327935 23.990226 41.545318 -62.188650 -22.107958 -12.015176 -7.708523 -5.712361 -6.683380 -1.785198 -20.684752 22.488105 0.000000 0.000000 0.000000 0.000000 0.000000 0.000000 0.000000 0.000000 0.000000 0.000000 0.000000 0.000000 0.000000 0.000000 0.000000 0.000000 0.000000 0.000000 0.000000 0.000000 0.000000 0.000000 0.000000 0.000000 0.000000 0.000000 0.000000 0.000000 0.000000 0.000000 0.000000 0.000000 0.000000 0.000000 0.000000 0.000000 0.000000 0.000000 0.000000 0.000000 0.000000 0.000000 0.000000 0.000000 0.000000
-537.836182 927.415710 365.086426 -3.103550 68.209823 -5.027300 6.002799 -62.786065 2.105060 -6.276563 21.402090 -5.571630 3.138502 -26.475651 -8.298495 -2.773331 -0.522828 5.736205 -0.000002 -0.000031 0.923881 -11.601696 -64.224106 13.256778 3.672386 -7.233496 2.844660 11.133140 17.516819 -7.553311 -13.310305 -11.684547 4.539868 -0.000004 -0.000034 2.834367 -8.692113 -70.213108 4.644911 -1.584949 -3.365884 2.540571 3.646740 2.521029 14.494995 4.168678 -11.976177 -10.855686 5.501915 -14.866580 -14.082377 -1.013969 31.511767 12.341412 -8.106372 6.364346 -12.209368 -66.911290 -9.725078 43.863175 69.477065 14.437063 -17.665217 -4.543778 17.683992 7.907617 8.299733 8.294835 2.461332 0.000000 0.000000 0.000000 0.000000 0.000000 0.000000 0.000000 0.000000 0.000000 0.000000 0.000000 0.000000 0.000000 0.000000 0.000000 0.000000 0.000000 0.000000 0.000000 0.000000 0.000000 0.000000 0.000000 0.000000 0.000000 0.000000 0.000000 0.000000 0.000000 0.000000 0.000000 0.000000 0.000000 0.000000 0.000000 0.000000 0.000000 0.000000 0.000000 0.000000 0.000000 0.000000 0.000000 0.000000 0.000000 10.807971 7.214133 -7.470611 56.514270 23.918815 41.276007 -61.401869 -21.056142 -10.603299 -6.375986 -8.131171 -2.491437 -0.791189 -19.234839 16.133866 0.000000 0.000000 0.000000 0.000000 0.000000 0.000000 0.000000 0.000000 0.000000 0.000000 0.000000 0.000000 0.000000 0.000000 0.000000 0.000000 0.000000 0.000000 0.000000 0.000000 0.000000 0.000000 0.000000 0.000000 0.000000 0.000000 0.000000 0.000000 0.000000 0.000000 0.000000 0.000000 0.000000 0.000000 0.000000 0.000000 0.000000 0.000000 0.000000 0.000000 0.000000 0.000000 0.000000 0.000000 0.000000
-534.722534 927.108154 363.314270 -2.794171 64.374920 -5.017794 4.541292 -58.559812 4.918787 -6.558575 22.378584 -6.691820 3.290342 -26.157536 -8.686209 -3.133509 -2.310002 6.082926 0.000003 0.000034 0.897514 -10.529790 -59.724906 12.126787 3.805401 -7.019197 2.808728 12.044423 18.641190 -6.773732 -14.363567 -13.666481 4.471943 -0.000004 -0.000034 2.824697 -8.387546 -66.422280 4.342033 -1.623440 -3.689876 2.496413 3.886735 2.610217 14.974160 3.168975 -12.444672 -10.010491 7.636020 -14.058885 -13.910920 -2.566732 31.545904 10.888481 -8.200861 6.620696 -12.602639 -66.494366 -10.221606 43.979852 68.774103 14.962658 -17.495068 -3.691822 17.244737 8.310154 7.348764 8.290841 2.230342 0.000000 0.000000 0.000000 0.000000 0.000000 0.000000 0.000000 0.000000 0.000000 0.000000 0.000000 0.000000 0.000000 0.000000 0.000000 0.000000 0.000000 0.000000 0.000000 0.000000 0.000000 0.000000 0.000000 0.000000 0.000000 0.000000 0.000000 0.000000 0.000000 0.000000 0.000000 0.000000 0.000000 0.000000 0.000000 0.000000 0.000000 0.000000 0.000000 0.000000 0.000000 0.000000 0.000000 0.000000 0.000000 10.616420 7.511670 -7.701033 55.600738 23.448178 41.439967 -60.580755 -21.145472 -10.661834 -5.960081 -9.522490 -0.182287 0.212376 -17.902469 12.405707 0.000000 0.000000 0.000000 0.000000 0.000000 0.000000 0.000000 0.000000 0.000000 0.000000 0.000000 0.000000 0.000000 0.000000 0.000000 0.000000 0.000000 0.000000 0.000000 0.000000 0.000000 0.000000 0.000000 0.000000 0.000000 0.000000 0.000000 0.000000 0.000000 0.000000 0.000000 0.000000 0.000000 0.000000 0.000000 0.000000 0.000000 0.000000 0.000000 0.000000 0.000000 0.000000 0.000000 0.000000 0.000000
-532.352783 926.931458 361.727539 -2.665694 61.351045 -5.242178 3.445922 -55.132950 7.316460 -6.792888 22.837710 -7.995046 3.375421 -25.603277 -8.579968 -3.515650 -3.825479 6.463485 0.000004 0.000038 0.609545 -10.027183 -56.391395 11.750350 3.880462 -6.706178 2.677566 12.786112 19.777402 -5.977748 -15.189637 -15.427378 4.317642 0.000001 0.000017 2.856651 -8.345243 -63.462490 4.474953 -1.701104 -3.890223 2.626094 4.143291 2.936180 15.034487 2.939980 -13.034169 -9.613220 8.050379 -13.977471 -13.733214 -2.829776 32.002629 10.113303 -8.089233 6.453456 -12.632359 -66.128937 -11.238325 44.236972 67.872100 15.046139 -17.691440 -2.585237 17.411034 8.995954 6.449840 8.555902 2.192497 0.000000 0.000000 0.000000 0.000000 0.000000 0.000000 0.000000 0.000000 0.000000 0.000000 0.000000 0.000000 0.000000 0.000000 0.000000 0.000000 0.000000 0.000000 0.000000 0.000000 0.000000 0.000000 0.000000 0.000000 0.000000 0.000000 0.000000 0.000000 0.000000 0.000000 0.000000 0.000000 0.000000 0.000000 0.000000 0.000000 0.000000 0.000000 0.000000 0.000000 0.000000 0.000000 0.000000 0.000000 0.000000 10.581366 7.133998 -7.853636 54.999522 22.280053 41.566821 -60.441986 -21.470439 -12.472055 -6.790967 -8.484611 -1.137017 0.749436 -17.963109 13.810957 0.000000 0.000000 0.000000 0.000000 0.000000 0.000000 0.000000 0.000000 0.000000 0.000000 0.000000 0.000000 0.000000 0.000000 0.000000 0.000000 0.000000 0.000000 0.000000 0.000000 0.000000 0.000000 0.000000 0.000000 0.000000 0.000000 0.000000 0.000000 0.000000 0.000000 0.000000 0.000000 0.000000 0.000000 0.000000 0.000000 0.000000 0.000000 0.000000 0.000000 0.000000 0.000000 0.000000 0.000000 0.000000
